Coordinates
version=1
nRows=17
nColumns=40
inDegrees=yes

Units are S.I. units (second, meters, Newtons, ...)
Angles are in degrees.

endheader
time	pelvis_tilt	pelvis_list	pelvis_rotation	pelvis_tx	pelvis_ty	pelvis_tz	hip_flexion_r	hip_adduction_r	hip_rotation_r	knee_angle_r	knee_angle_r_beta	ankle_angle_r	subtalar_angle_r	mtp_angle_r	hip_flexion_l	hip_adduction_l	hip_rotation_l	knee_angle_l	knee_angle_l_beta	ankle_angle_l	subtalar_angle_l	mtp_angle_l	lumbar_extension	lumbar_bending	lumbar_rotation	arm_flex_r	arm_add_r	arm_rot_r	elbow_flex_r	pro_sup_r	wrist_flex_r	wrist_dev_r	arm_flex_l	arm_add_l	arm_rot_l	elbow_flex_l	pro_sup_l	wrist_flex_l	wrist_dev_l
      3.09128571	     -0.01891629	     -5.96004456	      3.39143410	      1.03252864	      0.92572758	      0.55304643	      7.86165959	      6.91928117	    -13.72392264	     20.81842554	     20.81842554	     14.70319825	     -8.97031455	     -3.52531527	     23.13956386	    -15.07830462	     -0.55536942	     54.62259964	     54.62259964	     17.50008166	    -19.56000517	     22.37947594	     -9.92782967	      6.18469749	      1.91673785	     21.97317921	    -17.32741264	    -19.95157851	     37.29489763	     46.63471857	      0.00000000	      0.00000000	      0.22834903	     -8.00200189	     -5.64915069	     24.80965622	     46.26040572	      0.00000000	      0.00000000
      3.11007143	     -0.08709262	     -5.80045701	      4.01255795	      1.03017514	      0.92565295	      0.55283738	      7.65617689	      6.77064263	    -14.09081808	     20.71390229	     20.71390229	     14.91087923	     -9.16302218	     -3.33443891	     24.07720811	    -14.52779564	     -0.44589590	     52.31252084	     52.31252084	     17.73473835	    -19.54278556	     22.33145691	    -10.02667472	      5.92184340	      2.05890885	     23.51064399	    -17.34834395	    -20.15748654	     38.89684889	     46.58421067	      0.00000000	      0.00000000	     -1.08406344	     -8.06638913	     -5.57319635	     24.45559640	     46.21942849	      0.00000000	      0.00000000
      3.12885714	     -0.30611137	     -5.80073413	      4.62831046	      1.02755335	      0.92547783	      0.55237792	      7.63073810	      6.76175424	    -14.53013414	     20.57831627	     20.57831627	     14.99194926	     -9.35954670	     -3.27847264	     25.16949663	    -14.00971836	     -0.15425926	     49.79527021	     49.79527021	     17.78334652	    -19.49833118	     22.39578011	     -9.92978496	      5.85335023	      2.74858426	     24.95939642	    -17.94189553	    -20.23442642	     39.71601472	     46.56573318	      0.00000000	      0.00000000	     -1.98976535	     -8.04063362	     -5.58319103	     24.22324468	     46.20308976	      0.00000000	      0.00000000
      3.14764286	     -0.43111928	     -5.46924423	      5.27831496	      1.02501256	      0.92583866	      0.55148366	      7.30800725	      6.36104996	    -15.15948071	     20.18374009	     20.18374009	     15.19862055	     -8.98253737	     -3.01695400	     25.78619257	    -13.07970750	     -0.04377258	     46.68897323	     46.68897323	     16.81453054	    -19.44682025	     20.59065705	    -10.12608958	      5.41892539	      2.33945636	     26.14061460	    -17.43409525	    -20.54670125	     43.85149055	     46.40016044	      0.00000000	      0.00000000	     -3.98743741	     -8.21428130	     -5.48723914	     25.46067958	     46.12609778	      0.00000000	      0.00000000
      3.16642857	     -0.64866365	     -5.21559602	      5.86812772	      1.02235414	      0.92623305	      0.55041542	      7.04460141	      6.06743298	    -15.60796941	     19.68372595	     19.68372595	     15.24475707	     -8.86871494	     -2.94052052	     26.47442544	    -12.12159361	      0.31324353	     43.55674230	     43.55674230	     16.00600863	    -19.32955998	     20.12892020	    -10.09151156	      5.08419029	      2.47328821	     27.70889723	    -17.56154628	    -20.52099218	     45.60964545	     46.33253959	      0.00000000	      0.00000000	     -5.08190782	     -8.23331461	     -5.38827838	     25.47353323	     46.08451240	      0.00000000	      0.00000000
      3.18521429	     -1.07940352	     -5.14175434	      6.43852857	      1.01939820	      0.92624676	      0.54913003	      7.11017086	      5.91914371	    -16.06258412	     19.28062945	     19.28062945	     15.18324977	     -8.89318154	     -2.86122860	     27.45845557	    -11.28197753	      0.86794729	     40.55079577	     40.55079577	     15.26116636	    -19.04431439	     20.21797441	     -9.83808887	      4.96052956	      2.99858634	     29.34545745	    -18.13633364	    -20.54218446	     46.65781354	     46.30270527	      0.00000000	      0.00000000	     -5.82703855	     -8.16164464	     -5.38365672	     25.41997844	     46.06792381	      0.00000000	      0.00000000
      3.20400000	     -1.26467141	     -4.84427381	      7.04133332	      1.01682227	      0.92689060	      0.54750679	      6.59881060	      5.49497382	    -17.04246351	     18.46421385	     18.46421385	     15.18356662	     -7.76708078	     -3.20996489	     27.67813417	    -10.27016939	      1.24246055	     36.87746227	     36.87746227	     12.81386866	    -18.82688398	     16.34380781	     -9.99546644	      4.60757885	      2.44420361	     30.43620153	    -17.61364103	    -20.11284679	     51.09959593	     46.10535220	      0.00000000	      0.00000000	     -7.60215813	     -8.22268631	     -5.38600398	     26.88005643	     46.01890049	      0.00000000	      0.00000000
      3.22278571	     -1.58508879	     -4.63615139	      7.55687190	      1.01419420	      0.92729267	      0.54582117	      6.30363624	      5.22322623	    -17.56814307	     17.70726367	     17.70726367	     14.98166618	     -7.48045645	     -3.47735657	     27.95410225	     -9.39647757	      1.62382235	     33.22852969	     33.22852969	     10.37114921	    -18.32406848	     12.66114918	     -9.93885175	      4.29945249	      2.92554773	     31.21969557	    -18.20809117	    -19.51851679	     54.25794928	     45.95158585	      0.00000000	      0.00000000	     -8.58188735	     -8.27398536	     -5.17775717	     27.99945973	     45.95966314	      0.00000000	      0.00000000
      3.24157143	     -1.86306044	     -4.46019068	      8.04131892	      1.01159065	      0.92771343	      0.54394938	      5.95016859	      4.99341018	    -18.01277220	     16.93865581	     16.93865581	     14.83096946	     -7.09750698	     -3.55268687	     28.22053518	     -8.58501698	      2.13201122	     29.96931554	     29.96931554	      9.13374687	    -17.21815989	     11.69284693	     -9.90912413	      4.06824498	      3.03008903	     32.85473031	    -18.30785849	    -19.28217899	     56.14289038	     45.87639684	      0.00000000	      0.00000000	     -9.28976268	     -8.19301402	     -5.04094511	     28.11650192	     45.92514201	      0.00000000	      0.00000000
      3.26035714	     -2.20451180	     -4.38659089	      8.47314976	      1.00931364	      0.92782135	      0.54209306	      5.60865469	      4.85466764	    -18.68935966	     16.08685020	     16.08685020	     14.67971194	     -6.47142001	     -4.04873991	     28.42295516	     -8.12074766	      2.04533686	     26.72069813	     26.72069813	      7.31821346	    -15.33866994	      8.51259879	     -9.73730257	      3.88664292	      3.18957565	     33.83915517	    -18.63708448	    -18.67253205	     59.30430533	     45.73624269	      0.00000000	      0.00000000	    -10.18871098	     -8.18706120	     -4.96961892	     29.07291955	     45.89759968	      0.00000000	      0.00000000
      3.27914286	     -2.48086330	     -4.29253690	      8.82085265	      1.00718401	      0.92800346	      0.54020137	      5.22061548	      4.74838748	    -19.03810219	     15.29917339	     15.29917339	     14.60666786	     -6.20829451	     -4.10733237	     28.49915432	     -7.70075615	      1.86758673	     23.84530579	     23.84530579	      6.79520818	    -12.91732190	      8.01970109	     -9.68151252	      3.63434493	      3.26737464	     35.47005825	    -18.70665695	    -18.43943437	     60.97764486	     45.67482723	      0.00000000	      0.00000000	    -10.67513846	     -8.08243938	     -4.90233987	     29.16942897	     45.88013541	      0.00000000	      0.00000000
      3.29792857	     -2.71060163	     -4.30016339	      9.15940461	      1.00534367	      0.92797152	      0.53813417	      4.76732471	      4.72850576	    -19.46522037	     14.50092425	     14.50092425	     14.46934110	     -5.66739139	     -4.34459235	     28.57732261	     -7.47270702	      1.51304195	     21.42791869	     21.42791869	      6.26341930	    -10.24869288	      7.10240178	     -9.54605884	      3.57331951	      3.31995165	     36.85778203	    -18.67392687	    -17.96351577	     63.24898763	     45.58366254	      0.00000000	      0.00000000	    -11.27814245	     -7.95899119	     -4.89811726	     29.57719907	     45.87010010	      0.00000000	      0.00000000
      3.31671429	     -2.96470111	     -4.30316357	      9.43015809	      1.00373763	      0.92773977	      0.53601210	      4.37635152	      4.69937403	    -19.78975035	     13.80395988	     13.80395988	     14.39929207	     -5.27362366	     -4.57579603	     28.56089074	     -7.27045719	      1.05331215	     19.25348314	     19.25348314	      5.83151706	     -7.91933966	      6.50176102	     -9.38975872	      3.41542819	      3.35308742	     38.21156251	    -18.73828076	    -17.51152116	     65.31801585	     45.50262755	      0.00000000	      0.00000000	    -11.73856072	     -7.87857213	     -4.90863590	     29.97783728	     45.86471249	      0.00000000	      0.00000000
      3.33550000	     -3.40255006	     -4.51816246	      9.64783020	      1.00218453	      0.92678667	      0.53375587	      4.39190500	      4.81440142	    -20.00808962	     13.45959791	     13.45959791	     14.47905139	     -5.18358235	     -4.64958775	     28.98643016	     -7.17440074	      1.06101527	     17.88408475	     17.88408475	      5.63289953	     -6.78452372	      6.51336612	     -8.90489552	      3.46681813	      3.65011988	     39.87370075	    -19.06513085	    -17.43216075	     66.33742535	     45.47324324	      0.00000000	      0.00000000	    -11.83611727	     -7.74331070	     -4.89582974	     30.10098186	     45.86138882	      0.00000000	      0.00000000
      3.35428571	     -3.40419958	     -4.49431338	      9.79630318	      1.00151227	      0.92671357	      0.53148861	      3.63321661	      4.81427683	    -20.24550798	     12.71575338	     12.71575338	     14.52267193	     -4.66621021	     -4.91235658	     28.37557580	     -7.13232400	      0.11252076	     16.09161309	     16.09161309	      5.31113553	     -4.68390986	      5.97938058	     -8.97662444	      3.29410978	      3.40995961	     40.96798720	    -18.52654773	    -16.72238347	     68.68731380	     45.37316644	      0.00000000	      0.00000000	    -12.33350928	     -7.59754655	     -4.88653763	     30.47697552	     45.85201687	      0.00000000	      0.00000000
      3.37307143	     -3.47547817	     -4.66674430	      9.94600703	      1.00108468	      0.92597835	      0.52906200	      3.00239996	      4.98929979	    -20.52441279	     12.04536703	     12.04536703	     14.53427121	     -4.12681530	     -5.38163011	     28.28110725	     -7.26310412	     -0.68694112	     15.42065058	     15.42065058	      4.89711524	     -3.39697869	      4.61524994	     -8.91555418	      3.30905491	      3.30850129	     41.97846738	    -18.51266122	    -15.79694899	     71.59150767	     45.25093091	      0.00000000	      0.00000000	    -12.79477331	     -7.55057785	     -4.92920346	     31.34804182	     45.85094088	      0.00000000	      0.00000000
      3.39185714	     -3.60797472	     -4.83543749	     10.05365648	      1.00089703	      0.92495532	      0.52645789	      2.56215980	      5.11331888	    -20.59074568	     11.64799682	     11.64799682	     14.63283584	     -3.95473557	     -5.92872428	     28.21318098	     -7.31633429	     -1.11458783	     15.00528301	     15.00528301	      4.04214724	     -3.32261158	      2.88841032	     -8.70809913	      3.28290385	      3.56274959	     42.73594152	    -18.91698437	    -14.99978615	     74.06361066	     45.15414171	      0.00000000	      0.00000000	    -13.04284603	     -7.54092527	     -4.88062156	     32.37036820	     45.84204640	      0.00000000	      0.00000000
